<svg width="83" height="74" viewBox="0 0 83 74" fill="none" xmlns="http://www.w3.org/2000/svg">
<path d="M2.817 73.108C2.313 73.108 1.83 73.042 1.368 72.91C0.906 72.772 0.534 72.595 0.252 72.379L0.747 71.281C1.017 71.473 1.335 71.632 1.701 71.758C2.073 71.878 2.448 71.938 2.826 71.938C3.114 71.938 3.345 71.911 3.519 71.857C3.699 71.797 3.831 71.716 3.915 71.614C3.999 71.512 4.041 71.395 4.041 71.263C4.041 71.095 3.975 70.963 3.843 70.867C3.711 70.765 3.537 70.684 3.321 70.624C3.105 70.558 2.865 70.498 2.601 70.444C2.343 70.384 2.082 70.312 1.818 70.228C1.56 70.144 1.323 70.036 1.107 69.904C0.891 69.772 0.714 69.598 0.576 69.382C0.444 69.166 0.378 68.89 0.378 68.554C0.378 68.194 0.474 67.867 0.666 67.573C0.864 67.273 1.158 67.036 1.548 66.862C1.944 66.682 2.439 66.592 3.033 66.592C3.429 66.592 3.819 66.64 4.203 66.736C4.587 66.826 4.926 66.964 5.22 67.15L4.77 68.257C4.476 68.089 4.182 67.966 3.888 67.888C3.594 67.804 3.306 67.762 3.024 67.762C2.742 67.762 2.511 67.795 2.331 67.861C2.151 67.927 2.022 68.014 1.944 68.122C1.866 68.224 1.827 68.344 1.827 68.482C1.827 68.644 1.893 68.776 2.025 68.878C2.157 68.974 2.331 69.052 2.547 69.112C2.763 69.172 3 69.232 3.258 69.292C3.522 69.352 3.783 69.421 4.041 69.499C4.305 69.577 4.545 69.682 4.761 69.814C4.977 69.946 5.151 70.12 5.283 70.336C5.421 70.552 5.49 70.825 5.49 71.155C5.49 71.509 5.391 71.833 5.193 72.127C4.995 72.421 4.698 72.658 4.302 72.838C3.912 73.018 3.417 73.108 2.817 73.108ZM6.48626 73V66.7H7.94426V73H6.48626ZM9.43938 73V66.7H12.3014C12.9854 66.7 13.5884 66.832 14.1104 67.096C14.6324 67.354 15.0404 67.717 15.3344 68.185C15.6284 68.653 15.7754 69.208 15.7754 69.85C15.7754 70.486 15.6284 71.041 15.3344 71.515C15.0404 71.983 14.6324 72.349 14.1104 72.613C13.5884 72.871 12.9854 73 12.3014 73H9.43938ZM10.8974 71.803H12.2294C12.6494 71.803 13.0124 71.725 13.3184 71.569C13.6304 71.407 13.8704 71.179 14.0384 70.885C14.2124 70.591 14.2994 70.246 14.2994 69.85C14.2994 69.448 14.2124 69.103 14.0384 68.815C13.8704 68.521 13.6304 68.296 13.3184 68.14C13.0124 67.978 12.6494 67.897 12.2294 67.897H10.8974V71.803ZM21.1949 66.7H22.6529V73H21.1949V66.7ZM18.3329 73H16.8749V66.7H18.3329V73ZM21.3029 70.417H18.2249V69.184H21.3029V70.417ZM26.9425 73.108C26.0485 73.108 25.3495 72.859 24.8455 72.361C24.3415 71.863 24.0895 71.152 24.0895 70.228V66.7H25.5475V70.174C25.5475 70.774 25.6705 71.206 25.9165 71.47C26.1625 71.734 26.5075 71.866 26.9515 71.866C27.3955 71.866 27.7405 71.734 27.9865 71.47C28.2325 71.206 28.3555 70.774 28.3555 70.174V66.7H29.7955V70.228C29.7955 71.152 29.5435 71.863 29.0395 72.361C28.5355 72.859 27.8365 73.108 26.9425 73.108ZM30.8943 69.31L31.4883 67.15L31.6863 67.969C31.4283 67.969 31.2153 67.894 31.0473 67.744C30.8853 67.588 30.8043 67.378 30.8043 67.114C30.8043 66.856 30.8883 66.649 31.0563 66.493C31.2243 66.331 31.4313 66.25 31.6773 66.25C31.9293 66.25 32.1363 66.331 32.2983 66.493C32.4603 66.649 32.5413 66.856 32.5413 67.114C32.5413 67.192 32.5353 67.27 32.5233 67.348C32.5173 67.42 32.4963 67.507 32.4603 67.609C32.4303 67.711 32.3793 67.846 32.3073 68.014L31.7853 69.31H30.8943ZM35.7496 73.108C35.2456 73.108 34.7626 73.042 34.3006 72.91C33.8386 72.772 33.4666 72.595 33.1846 72.379L33.6796 71.281C33.9496 71.473 34.2676 71.632 34.6336 71.758C35.0056 71.878 35.3806 71.938 35.7586 71.938C36.0466 71.938 36.2776 71.911 36.4516 71.857C36.6316 71.797 36.7636 71.716 36.8476 71.614C36.9316 71.512 36.9736 71.395 36.9736 71.263C36.9736 71.095 36.9076 70.963 36.7756 70.867C36.6436 70.765 36.4696 70.684 36.2536 70.624C36.0376 70.558 35.7976 70.498 35.5336 70.444C35.2756 70.384 35.0146 70.312 34.7506 70.228C34.4926 70.144 34.2556 70.036 34.0396 69.904C33.8236 69.772 33.6466 69.598 33.5086 69.382C33.3766 69.166 33.3106 68.89 33.3106 68.554C33.3106 68.194 33.4066 67.867 33.5986 67.573C33.7966 67.273 34.0906 67.036 34.4806 66.862C34.8766 66.682 35.3716 66.592 35.9656 66.592C36.3616 66.592 36.7516 66.64 37.1356 66.736C37.5196 66.826 37.8586 66.964 38.1526 67.15L37.7026 68.257C37.4086 68.089 37.1146 67.966 36.8206 67.888C36.5266 67.804 36.2386 67.762 35.9566 67.762C35.6746 67.762 35.4436 67.795 35.2636 67.861C35.0836 67.927 34.9546 68.014 34.8766 68.122C34.7986 68.224 34.7596 68.344 34.7596 68.482C34.7596 68.644 34.8256 68.776 34.9576 68.878C35.0896 68.974 35.2636 69.052 35.4796 69.112C35.6956 69.172 35.9326 69.232 36.1906 69.292C36.4546 69.352 36.7156 69.421 36.9736 69.499C37.2376 69.577 37.4776 69.682 37.6936 69.814C37.9096 69.946 38.0836 70.12 38.2156 70.336C38.3536 70.552 38.4226 70.825 38.4226 71.155C38.4226 71.509 38.3236 71.833 38.1256 72.127C37.9276 72.421 37.6306 72.658 37.2346 72.838C36.8446 73.018 36.3496 73.108 35.7496 73.108ZM44.0377 73.108C43.5337 73.108 43.0507 73.042 42.5887 72.91C42.1267 72.772 41.7547 72.595 41.4727 72.379L41.9677 71.281C42.2377 71.473 42.5557 71.632 42.9217 71.758C43.2937 71.878 43.6687 71.938 44.0467 71.938C44.3347 71.938 44.5657 71.911 44.7397 71.857C44.9197 71.797 45.0517 71.716 45.1357 71.614C45.2197 71.512 45.2617 71.395 45.2617 71.263C45.2617 71.095 45.1957 70.963 45.0637 70.867C44.9317 70.765 44.7577 70.684 44.5417 70.624C44.3257 70.558 44.0857 70.498 43.8217 70.444C43.5637 70.384 43.3027 70.312 43.0387 70.228C42.7807 70.144 42.5437 70.036 42.3277 69.904C42.1117 69.772 41.9347 69.598 41.7967 69.382C41.6647 69.166 41.5987 68.89 41.5987 68.554C41.5987 68.194 41.6947 67.867 41.8867 67.573C42.0847 67.273 42.3787 67.036 42.7687 66.862C43.1647 66.682 43.6597 66.592 44.2537 66.592C44.6497 66.592 45.0397 66.64 45.4237 66.736C45.8077 66.826 46.1467 66.964 46.4407 67.15L45.9907 68.257C45.6967 68.089 45.4027 67.966 45.1087 67.888C44.8147 67.804 44.5267 67.762 44.2447 67.762C43.9627 67.762 43.7317 67.795 43.5517 67.861C43.3717 67.927 43.2427 68.014 43.1647 68.122C43.0867 68.224 43.0477 68.344 43.0477 68.482C43.0477 68.644 43.1137 68.776 43.2457 68.878C43.3777 68.974 43.5517 69.052 43.7677 69.112C43.9837 69.172 44.2207 69.232 44.4787 69.292C44.7427 69.352 45.0037 69.421 45.2617 69.499C45.5257 69.577 45.7657 69.682 45.9817 69.814C46.1977 69.946 46.3717 70.12 46.5037 70.336C46.6417 70.552 46.7107 70.825 46.7107 71.155C46.7107 71.509 46.6117 71.833 46.4137 72.127C46.2157 72.421 45.9187 72.658 45.5227 72.838C45.1327 73.018 44.6377 73.108 44.0377 73.108ZM50.722 73.108C50.236 73.108 49.783 73.03 49.363 72.874C48.949 72.712 48.589 72.484 48.283 72.19C47.977 71.896 47.737 71.551 47.563 71.155C47.395 70.759 47.311 70.324 47.311 69.85C47.311 69.376 47.395 68.941 47.563 68.545C47.737 68.149 47.977 67.804 48.283 67.51C48.595 67.216 48.958 66.991 49.372 66.835C49.786 66.673 50.239 66.592 50.731 66.592C51.277 66.592 51.769 66.688 52.207 66.88C52.651 67.066 53.023 67.342 53.323 67.708L52.387 68.572C52.171 68.326 51.931 68.143 51.667 68.023C51.403 67.897 51.115 67.834 50.803 67.834C50.509 67.834 50.239 67.882 49.993 67.978C49.747 68.074 49.534 68.212 49.354 68.392C49.174 68.572 49.033 68.785 48.931 69.031C48.835 69.277 48.787 69.55 48.787 69.85C48.787 70.15 48.835 70.423 48.931 70.669C49.033 70.915 49.174 71.128 49.354 71.308C49.534 71.488 49.747 71.626 49.993 71.722C50.239 71.818 50.509 71.866 50.803 71.866C51.115 71.866 51.403 71.806 51.667 71.686C51.931 71.56 52.171 71.371 52.387 71.119L53.323 71.983C53.023 72.349 52.651 72.628 52.207 72.82C51.769 73.012 51.274 73.108 50.722 73.108ZM58.6275 66.7H60.0855V73H58.6275V66.7ZM55.7655 73H54.3075V66.7H55.7655V73ZM58.7355 70.417H55.6575V69.184H58.7355V70.417ZM64.6361 73.108C64.1381 73.108 63.6761 73.027 63.2501 72.865C62.8301 72.703 62.4641 72.475 62.1521 72.181C61.8461 71.887 61.6061 71.542 61.4321 71.146C61.2641 70.75 61.1801 70.318 61.1801 69.85C61.1801 69.382 61.2641 68.95 61.4321 68.554C61.6061 68.158 61.8491 67.813 62.1611 67.519C62.4731 67.225 62.8391 66.997 63.2591 66.835C63.6791 66.673 64.1351 66.592 64.6271 66.592C65.1251 66.592 65.5811 66.673 65.9951 66.835C66.4151 66.997 66.7781 67.225 67.0841 67.519C67.3961 67.813 67.6391 68.158 67.8131 68.554C67.9871 68.944 68.0741 69.376 68.0741 69.85C68.0741 70.318 67.9871 70.753 67.8131 71.155C67.6391 71.551 67.3961 71.896 67.0841 72.19C66.7781 72.478 66.4151 72.703 65.9951 72.865C65.5811 73.027 65.1281 73.108 64.6361 73.108ZM64.6271 71.866C64.9091 71.866 65.1671 71.818 65.4011 71.722C65.6411 71.626 65.8511 71.488 66.0311 71.308C66.2111 71.128 66.3491 70.915 66.4451 70.669C66.5471 70.423 66.5981 70.15 66.5981 69.85C66.5981 69.55 66.5471 69.277 66.4451 69.031C66.3491 68.785 66.2111 68.572 66.0311 68.392C65.8571 68.212 65.6501 68.074 65.4101 67.978C65.1701 67.882 64.9091 67.834 64.6271 67.834C64.3451 67.834 64.0841 67.882 63.8441 67.978C63.6101 68.074 63.4031 68.212 63.2231 68.392C63.0431 68.572 62.9021 68.785 62.8001 69.031C62.7041 69.277 62.6561 69.55 62.6561 69.85C62.6561 70.144 62.7041 70.417 62.8001 70.669C62.9021 70.915 63.0401 71.128 63.2141 71.308C63.3941 71.488 63.6041 71.626 63.8441 71.722C64.0841 71.818 64.3451 71.866 64.6271 71.866ZM72.2299 73.108C71.7319 73.108 71.2699 73.027 70.8439 72.865C70.4239 72.703 70.0579 72.475 69.7459 72.181C69.4399 71.887 69.1999 71.542 69.0259 71.146C68.8579 70.75 68.7739 70.318 68.7739 69.85C68.7739 69.382 68.8579 68.95 69.0259 68.554C69.1999 68.158 69.4429 67.813 69.7549 67.519C70.0669 67.225 70.4329 66.997 70.8529 66.835C71.2729 66.673 71.7289 66.592 72.2209 66.592C72.7189 66.592 73.1749 66.673 73.5889 66.835C74.0089 66.997 74.3719 67.225 74.6779 67.519C74.9899 67.813 75.2329 68.158 75.4069 68.554C75.5809 68.944 75.6679 69.376 75.6679 69.85C75.6679 70.318 75.5809 70.753 75.4069 71.155C75.2329 71.551 74.9899 71.896 74.6779 72.19C74.3719 72.478 74.0089 72.703 73.5889 72.865C73.1749 73.027 72.7219 73.108 72.2299 73.108ZM72.2209 71.866C72.5029 71.866 72.7609 71.818 72.9949 71.722C73.2349 71.626 73.4449 71.488 73.6249 71.308C73.8049 71.128 73.9429 70.915 74.0389 70.669C74.1409 70.423 74.1919 70.15 74.1919 69.85C74.1919 69.55 74.1409 69.277 74.0389 69.031C73.9429 68.785 73.8049 68.572 73.6249 68.392C73.4509 68.212 73.2439 68.074 73.0039 67.978C72.7639 67.882 72.5029 67.834 72.2209 67.834C71.9389 67.834 71.6779 67.882 71.4379 67.978C71.2039 68.074 70.9969 68.212 70.8169 68.392C70.6369 68.572 70.4959 68.785 70.3939 69.031C70.2979 69.277 70.2499 69.55 70.2499 69.85C70.2499 70.144 70.2979 70.417 70.3939 70.669C70.4959 70.915 70.6339 71.128 70.8079 71.308C70.9879 71.488 71.1979 71.626 71.4379 71.722C71.6779 71.818 71.9389 71.866 72.2209 71.866ZM76.7636 73V66.7H78.2216V71.812H81.3806V73H76.7636Z" fill="url(#paint0_linear_194_332)"/>
<path d="M63.1118 34.3601V19.7319H62.0577V34.3601C58.2299 34.56 55.2068 36.9061 55.2068 39.7781C55.2068 42.7811 58.5099 45.2155 62.5849 45.2155C66.6596 45.2155 69.963 42.7808 69.963 39.7781C69.963 36.9064 66.9395 34.5603 63.1118 34.3601ZM62.5849 42.0115C60.9113 42.0115 59.5548 41.0115 59.5548 39.7781C59.5548 38.5446 60.9117 37.5446 62.5849 37.5446C64.2585 37.5446 65.615 38.5446 65.615 39.7781C65.615 41.0115 64.2585 42.0115 62.5849 42.0115Z" fill="url(#paint1_linear_194_332)"/>
<path d="M29.9008 32.5303C30.28 31.1531 29.7149 29.7994 28.5399 28.8232C26.942 29.3851 25.706 30.4694 25.3268 31.8466C24.948 33.2238 25.5131 34.5772 26.6877 35.5534C28.286 34.9918 29.522 33.9073 29.9008 32.5303Z" fill="url(#paint2_linear_194_332)"/>
<path d="M19.1469 26.8728C21.0049 26.5568 22.4426 25.6172 23.162 24.4249C21.8066 23.5855 19.9556 23.2053 18.0975 23.5216C16.2399 23.8376 14.8022 24.7772 14.0828 25.9695C15.4378 26.8089 17.2888 27.1888 19.1469 26.8728Z" fill="url(#paint3_linear_194_332)"/>
<path d="M10.8661 23.4359C12.7241 23.1199 14.1619 22.1803 14.8813 20.988C13.5259 20.1486 11.6748 19.7687 9.81677 20.0847C7.95911 20.4007 6.52141 21.3403 5.802 22.5326C7.15704 23.3718 9.00809 23.752 10.8661 23.4359Z" fill="url(#paint4_linear_194_332)"/>
<path d="M4.27307 19.5294C6.16012 19.7323 7.96267 19.2419 9.22034 18.3236C8.37124 17.1787 6.83397 16.329 4.94691 16.1262C3.06022 15.9234 1.25767 16.4138 0 17.3323C0.849102 18.4769 2.38638 19.3266 4.27307 19.5294Z" fill="url(#paint5_linear_194_332)"/>
<path d="M10.102 16.2215C11.3894 17.258 13.2066 17.7184 14.9688 17.5933C15.2936 16.3106 14.8317 14.9358 13.5443 13.8992C12.2569 12.8626 10.4396 12.4023 8.67749 12.5274C8.35306 13.8101 8.81454 15.1849 10.102 16.2215Z" fill="url(#paint6_linear_194_332)"/>
<path d="M17.5804 16.302C17.9879 17.6749 19.2467 18.7451 20.856 19.2888C22.01 18.2994 22.5472 16.9397 22.1393 15.5668C21.7319 14.1942 20.4731 13.1238 18.8638 12.5803C17.7098 13.5695 17.173 14.9294 17.5804 16.302Z" fill="url(#paint7_linear_194_332)"/>
<path d="M16.2229 10.4411C17.6147 11.4019 19.4745 11.758 21.2183 11.5335C21.4083 10.2364 20.8046 8.89169 19.4132 7.93094C18.0218 6.97046 16.1619 6.61437 14.4178 6.83885C14.2274 8.13593 14.8311 9.48039 16.2229 10.4411Z" fill="url(#paint8_linear_194_332)"/>
<path d="M31.3781 3.80294C32.4616 4.95947 34.1764 5.59826 35.9451 5.65161C36.5043 4.41357 36.3019 3.0052 35.2184 1.84867C34.1352 0.692404 32.4201 0.0533451 30.6514 0C30.0925 1.23804 30.295 2.64641 31.3781 3.80294Z" fill="url(#paint9_linear_194_332)"/>
<path d="M32.6256 9.80981C34.0174 10.7706 35.8773 11.1267 37.621 10.9022C37.811 9.6051 37.2073 8.26037 35.8159 7.29962C34.4245 6.33886 32.5646 5.98305 30.8205 6.20753C30.6305 7.5046 31.2342 8.84933 32.6256 9.80981Z" fill="url(#paint10_linear_194_332)"/>
<path d="M26.772 14.4292C26.1404 15.7553 26.4483 17.1531 27.43 18.239C29.1172 17.8441 30.5435 16.8948 31.1751 15.5687C31.8067 14.2429 31.4988 12.8449 30.5167 11.7593C28.8295 12.1541 27.4032 13.1035 26.772 14.4292Z" fill="url(#paint11_linear_194_332)"/>
<path d="M30.8358 21.5024C31.1315 22.8907 32.3014 24.0145 33.8637 24.6278C35.096 23.6909 35.7419 22.3572 35.4461 20.9689C35.1503 19.5809 33.9805 18.4571 32.4182 17.8438C31.1859 18.7804 30.54 20.1143 30.8358 21.5024Z" fill="url(#paint12_linear_194_332)"/>
<path d="M33.837 15.3999C34.8595 16.5862 36.54 17.2729 38.3048 17.3761C38.9279 16.1548 38.7986 14.7418 37.776 13.5555C36.7535 12.3695 35.0729 11.6828 33.3082 11.5796C32.6851 12.8008 32.8144 14.2138 33.837 15.3999Z" fill="url(#paint13_linear_194_332)"/>
<path d="M22.1379 8.77512C22.1133 10.1802 23.0102 11.4329 24.4108 12.2309C25.8389 11.4597 26.7795 10.2249 26.8041 8.81953C26.8288 7.41442 25.9319 6.16202 24.5313 5.36401C23.1035 6.13522 22.1626 7.37001 22.1379 8.77512Z" fill="url(#paint14_linear_194_332)"/>
<path d="M37.2893 6.20213C37.2647 7.60724 38.1616 8.85991 39.5622 9.65792C40.9903 8.88671 41.9309 7.65192 41.9555 6.24653C41.9801 4.84142 41.0833 3.58903 39.6827 2.79102C38.2549 3.56195 37.3139 4.79701 37.2893 6.20213Z" fill="url(#paint15_linear_194_332)"/>
<path d="M24.6042 30.1355C25.881 29.0916 26.3285 27.7144 25.9905 26.4335C24.2272 26.3182 22.4144 26.7888 21.1376 27.8327C19.8612 28.8763 19.4137 30.2538 19.7517 31.5346C21.5153 31.6497 23.3278 31.1794 24.6042 30.1355Z" fill="url(#paint16_linear_194_332)"/>
<path d="M48.2255 3.80294C47.1423 4.95947 45.4272 5.59826 43.6585 5.65161C43.0993 4.41357 43.3017 3.0052 44.3852 1.84867C45.4684 0.692404 47.1835 0.0533451 48.9522 0C49.5114 1.23804 49.3086 2.64641 48.2255 3.80294Z" fill="url(#paint17_linear_194_332)"/>
<path d="M46.978 9.80981C45.5862 10.7706 43.7264 11.1267 41.9826 10.9022C41.7926 9.6051 42.3963 8.26037 43.7877 7.29962C45.1791 6.33886 47.039 5.98305 48.7831 6.20753C48.9731 7.5046 48.3698 8.84933 46.978 9.80981Z" fill="url(#paint18_linear_194_332)"/>
<path d="M46.101 15.3999C45.0785 16.5862 43.3979 17.2729 41.6332 17.3761C41.0101 16.1548 41.1394 14.7418 42.1619 13.5555C43.1844 12.3695 44.865 11.6828 46.6297 11.5796C47.2528 12.8008 47.1231 14.2138 46.101 15.3999Z" fill="url(#paint19_linear_194_332)"/>
<path d="M10.2132 28.886C11.49 27.8421 11.9375 26.4649 11.5995 25.184C9.83588 25.0687 8.02341 25.5393 6.747 26.5832C5.4706 27.6268 5.02308 29.0043 5.3611 30.2851C7.12434 30.4002 8.93681 29.9296 10.2132 28.886Z" fill="url(#paint20_linear_194_332)"/>
<path d="M50.0991 32.5303C49.7203 31.1531 50.285 29.7994 51.46 28.8232C53.0579 29.3851 54.2939 30.4694 54.6731 31.8466C55.0519 33.2238 54.4868 34.5772 53.3122 35.5534C51.7139 34.9918 50.4783 33.9073 50.0991 32.5303Z" fill="url(#paint21_linear_194_332)"/>
<path d="M69.1345 23.4359C67.2765 23.1199 65.8388 22.1803 65.1194 20.988C66.4748 20.1486 68.3258 19.7687 70.1839 20.0847C72.0415 20.4007 73.4792 21.3403 74.1986 22.5326C72.8432 23.3718 70.9922 23.752 69.1345 23.4359Z" fill="url(#paint22_linear_194_332)"/>
<path d="M75.7271 19.5294C73.8404 19.7323 72.0375 19.2419 70.7798 18.3236C71.6289 17.1787 73.1662 16.329 75.0532 16.1262C76.9399 15.9234 78.7425 16.4138 80.0001 17.3323C79.151 18.4769 77.6137 19.3266 75.7271 19.5294Z" fill="url(#paint23_linear_194_332)"/>
<path d="M69.8982 16.2215C68.6108 17.258 66.7935 17.7184 65.0314 17.5933C64.7066 16.3106 65.1684 14.9358 66.4559 13.8992C67.7433 12.8626 69.5605 12.4023 71.3227 12.5274C71.6467 13.8101 71.1853 15.1849 69.8982 16.2215Z" fill="url(#paint24_linear_194_332)"/>
<path d="M62.4195 16.302C62.0117 17.6749 60.7533 18.7451 59.144 19.2888C57.9899 18.2994 57.4528 16.9397 57.8606 15.5668C58.2681 14.1942 59.5268 13.1238 61.1361 12.5803C62.2902 13.5695 62.827 14.9294 62.4195 16.302Z" fill="url(#paint25_linear_194_332)"/>
<path d="M63.7773 10.4411C62.3855 11.4019 60.5257 11.758 58.7819 11.5335C58.592 10.2364 59.1956 8.89169 60.587 7.93094C61.9784 6.97046 63.8383 6.61437 65.5824 6.83885C65.7724 8.13593 65.1687 9.48039 63.7773 10.4411Z" fill="url(#paint26_linear_194_332)"/>
<path d="M53.2285 14.4292C53.8601 15.7553 53.5522 17.1531 52.5705 18.239C50.8833 17.8441 49.457 16.8948 48.8254 15.5687C48.1938 14.2429 48.5017 12.8449 49.4838 11.7593C51.171 12.1541 52.597 13.1035 53.2285 14.4292Z" fill="url(#paint27_linear_194_332)"/>
<path d="M49.1641 21.5024C48.8684 22.8907 47.6989 24.0145 46.1362 24.6278C44.9039 23.6909 44.258 22.3572 44.5538 20.9689C44.8496 19.5809 46.0194 18.4571 47.5817 17.8438C48.814 18.7804 49.4599 20.1143 49.1641 21.5024Z" fill="url(#paint28_linear_194_332)"/>
<path d="M57.862 8.77512C57.8866 10.1802 56.9898 11.4329 55.5892 12.2309C54.161 11.4597 53.2204 10.2249 53.1958 8.81953C53.1712 7.41442 54.0681 6.16202 55.4687 5.36401C56.8968 6.13522 57.8374 7.37001 57.862 8.77512Z" fill="url(#paint29_linear_194_332)"/>
<path d="M55.3958 30.1355C54.119 29.0916 53.6715 27.7144 54.0095 26.4335C55.7728 26.3182 57.5856 26.7888 58.862 27.8327C60.1384 28.8763 60.5859 30.2538 60.2479 31.5346C58.4847 31.6497 56.6726 31.1794 55.3958 30.1355Z" fill="url(#paint30_linear_194_332)"/>
<path d="M69.7869 28.886C68.5101 27.8421 68.0626 26.4649 68.4007 25.184C70.1639 25.0687 71.9767 25.5393 73.2531 26.5832C74.5295 27.6268 74.977 29.0043 74.639 30.2851C72.8758 30.4002 71.0633 29.9296 69.7869 28.886Z" fill="url(#paint31_linear_194_332)"/>
<path d="M66.7796 18.7472C65.6755 18.8991 64.4777 19.0148 63.3836 19.1921C59.899 19.8325 56.5816 20.8415 53.46 22.1329C54.5692 20.2376 55.2956 18.23 55.4918 16.1647C55.5212 15.6654 55.4918 15.1303 55.4966 14.6275C55.4525 14.2692 55.325 13.4915 55.2706 13.1154C55.2313 13.4772 55.1971 14.2657 55.1479 14.6201C55.0351 15.0975 54.937 15.6256 54.7996 16.0922C53.6709 19.5249 49.8674 24.3788 42.8247 28.1189C41.8334 23.916 41.1611 19.6441 40.6456 15.7596C40.4835 14.5408 40.3414 13.3688 40.2039 12.2402C40.1845 12.0883 40.1698 11.9399 40.1499 11.7915C40.1305 11.9399 40.1154 12.0883 40.0959 12.2402C39.9585 13.3686 39.8112 14.5405 39.6495 15.7596C39.1344 19.6441 38.462 23.916 37.4704 28.1189C30.4277 24.3788 26.6242 19.5249 25.4955 16.0922C25.3581 15.6256 25.2648 15.0975 25.1472 14.6201C25.1031 14.2657 25.0638 13.4772 25.0292 13.1154C24.9704 13.4915 24.8426 14.2692 24.7985 14.6275C24.8033 15.1303 24.7739 15.6654 24.8033 16.1647C24.9995 18.23 25.7259 20.2374 26.8351 22.1329C23.7139 20.8415 20.3961 19.8325 16.9115 19.1921C15.8221 19.015 14.6243 18.8991 13.5155 18.7472C12.7105 18.7001 10.9487 18.6278 10.1047 18.5918C10.8951 18.7364 12.6274 19.0077 13.4027 19.1632C14.4234 19.438 15.562 19.702 16.5584 20.0023C19.6062 20.9826 22.4331 22.274 25.0145 23.8001C33.2987 28.6941 35.8703 37.2842 30.9186 44.1999C30.4887 44.7997 30.0379 45.3705 29.5657 45.9118C33.0647 45.5668 36.7576 45.3843 40.5034 45.3843C43.9744 45.3843 47.3976 45.5427 50.6662 45.8398C50.2179 45.3201 49.7902 44.7726 49.3813 44.1999C44.4245 37.2842 47.0012 28.6938 55.2806 23.8001C57.862 22.2737 60.6889 20.9823 63.7367 20.0023C64.7379 19.702 65.8765 19.438 66.8972 19.1632C67.6724 19.0074 69.4 18.7361 70.1903 18.5918C69.3464 18.6278 67.5894 18.7001 66.7796 18.7472ZM39.5628 37.4938H37.2227V34.8772H39.5628V37.4938ZM39.5628 34.0153H37.2227V33.0927C37.2227 32.0497 38.2276 31.1802 39.5628 30.9803V34.0153ZM43.0727 37.4938H40.7327V34.8772H43.0727V37.4938ZM43.0727 34.0153H40.7327V30.9803C42.0679 31.1802 43.0727 32.0499 43.0727 33.0927V34.0153Z" fill="url(#paint32_linear_194_332)"/>
<path d="M77.9065 57.9803C61.4029 50.7067 49.3497 56.5803 45.3335 59.1008L77.4913 59.0775C78.3015 59.0767 78.6017 58.2868 77.9065 57.9803Z" fill="url(#paint33_linear_194_332)"/>
<path d="M23.2086 48.0456C23.738 47.5498 24.0562 46.9256 24.0562 46.2459C24.0562 44.6358 22.2853 43.3304 20.1002 43.3304C19.566 43.3304 19.0568 43.4094 18.592 43.5511C17.8917 41.7674 15.6637 40.4619 13.0179 40.4619C10.4298 40.4619 8.2389 41.7105 7.48936 43.4349C7.39714 43.43 7.30529 43.4243 7.2116 43.4243C5.02693 43.4243 3.25562 44.7298 3.25562 46.3399C3.25562 47.0426 3.59327 47.6871 4.15505 48.1907C7.52831 47.5238 10.9277 47.1826 14.2752 47.1826C17.3927 47.1826 20.385 47.4783 23.2086 48.0456Z" fill="url(#paint34_linear_194_332)"/>
<path d="M40.1946 56.7484C43.9287 52.875 49.0112 50.0699 54.9545 48.5343C50.7027 47.8419 45.7727 47.4414 40.5032 47.4414C35.0541 47.4414 29.9624 47.8674 25.6147 48.6039C28.503 49.3727 31.1837 50.4442 33.6013 51.7935C36.0975 53.1583 38.3149 54.8187 40.1946 56.7484Z" fill="url(#paint35_linear_194_332)"/>
<path d="M76.6107 49.7877C62.676 46.7516 47.8246 49.5797 40.1478 59.4878C32.471 49.5794 17.6196 46.7513 3.68457 49.7877C2.27222 50.0953 1.30518 51.0555 1.30518 52.1411V55.3586C7.64019 53.2242 14.5278 51.8291 21.4929 52.5164C26.8017 53.0025 31.8372 54.7193 36.0254 57.1845C37.4726 58.0177 38.8303 58.9658 40.0431 59.9999C40.0431 59.9999 40.089 59.979 40.1478 59.9525C40.2066 59.979 40.2525 59.9999 40.2525 59.9999C41.4654 58.9658 42.823 58.0177 44.2702 57.1845C48.4584 54.7193 53.4939 53.0025 58.8027 52.5164C65.7675 51.8291 72.6551 53.2245 78.9905 55.3586V52.1411C78.9901 51.0555 78.023 50.0953 76.6107 49.7877Z" fill="url(#paint36_linear_194_332)"/>
<path d="M3.98609 57.6008C20.0349 50.9167 31.7294 56.6257 35.6736 59.1007L4.52215 59.078C3.42431 59.0771 3.03007 57.9989 3.98609 57.6008Z" fill="url(#paint37_linear_194_332)"/>
<defs>
<linearGradient id="paint0_linear_194_332" x1="0" y1="68.5" x2="83" y2="68.5" gradientUnits="userSpaceOnUse">
<stop stop-color="#957124"/>
<stop offset="1" stop-color="#957124"/>
</linearGradient>
<linearGradient id="paint1_linear_194_332" x1="62.4804" y1="19.7632" x2="62.5824" y2="55.7148" gradientUnits="userSpaceOnUse">
<stop offset="0.523" stop-color="#9AB868"/>
<stop offset="0.9866" stop-color="#D1EF4A"/>
</linearGradient>
<linearGradient id="paint2_linear_194_332" x1="27.0002" y1="35.7512" x2="27.5476" y2="29.9013" gradientUnits="userSpaceOnUse">
<stop offset="1" stop-color="#96C330"/>
</linearGradient>
<linearGradient id="paint3_linear_194_332" x1="14.0825" y1="25.1972" x2="23.1618" y2="25.1972" gradientUnits="userSpaceOnUse">
<stop offset="0.148" stop-color="#CBCF34"/>
<stop offset="0.3309" stop-color="#C0CC33"/>
<stop offset="0.6537" stop-color="#A2C631"/>
<stop offset="0.9866" stop-color="#7DBD2F"/>
</linearGradient>
<linearGradient id="paint4_linear_194_332" x1="2.74513" y1="23.0682" x2="15.5701" y2="19.0024" gradientUnits="userSpaceOnUse">
<stop offset="1" stop-color="#96C330"/>
</linearGradient>
<linearGradient id="paint5_linear_194_332" x1="0.220781" y1="17.2336" x2="9.16842" y2="19.4635" gradientUnits="userSpaceOnUse">
<stop offset="1" stop-color="#B39147"/>
</linearGradient>
<linearGradient id="paint6_linear_194_332" x1="8.31617" y1="12.1526" x2="13.0816" y2="19.4268" gradientUnits="userSpaceOnUse">
<stop offset="0.148" stop-color="#CBCF34"/>
<stop offset="0.3309" stop-color="#C0CC33"/>
<stop offset="0.6537" stop-color="#A2C631"/>
<stop offset="0.9866" stop-color="#7DBD2F"/>
</linearGradient>
<linearGradient id="paint7_linear_194_332" x1="18.6755" y1="12.1855" x2="19.8582" y2="19.0769" gradientUnits="userSpaceOnUse">
<stop offset="1" stop-color="#96C330"/>
</linearGradient>
<linearGradient id="paint8_linear_194_332" x1="14.031" y1="6.17353" x2="19.4558" y2="14.1184" gradientUnits="userSpaceOnUse">
<stop offset="0.9955" stop-color="#96C330"/>
</linearGradient>
<linearGradient id="paint9_linear_194_332" x1="30.2274" y1="-0.663565" x2="33.9986" y2="7.2252" gradientUnits="userSpaceOnUse">
<stop offset="0.9955" stop-color="#96C330"/>
</linearGradient>
<linearGradient id="paint10_linear_194_332" x1="33.8986" y1="5.11125" x2="34.205" y2="11.1393" gradientUnits="userSpaceOnUse">
<stop offset="1" stop-color="#B59D69"/>
</linearGradient>
<linearGradient id="paint11_linear_194_332" x1="29.1287" y1="10.5915" x2="28.9928" y2="17.6918" gradientUnits="userSpaceOnUse">
<stop offset="0.9955" stop-color="#96C330"/>
</linearGradient>
<linearGradient id="paint12_linear_194_332" x1="32.39" y1="18.1224" x2="33.2168" y2="24.4331" gradientUnits="userSpaceOnUse">
<stop offset="1" stop-color="#B59D69"/>
</linearGradient>
<linearGradient id="paint13_linear_194_332" x1="31.7484" y1="10.6043" x2="36.7453" y2="19.385" gradientUnits="userSpaceOnUse">
<stop stop-color="#B28C3B"/>
<stop offset="1" stop-color="#B4944F"/>
</linearGradient>
<linearGradient id="paint14_linear_194_332" x1="24.7001" y1="5.55966" x2="24.445" y2="12.205" gradientUnits="userSpaceOnUse">
<stop offset="1" stop-color="#B39046"/>
</linearGradient>
<linearGradient id="paint15_linear_194_332" x1="39.6227" y1="2.36455" x2="39.6227" y2="10.0157" gradientUnits="userSpaceOnUse">
<stop offset="0.148" stop-color="#CBCF34"/>
<stop offset="0.3309" stop-color="#C0CC33"/>
<stop offset="0.6537" stop-color="#A2C631"/>
<stop offset="0.9866" stop-color="#7DBD2F"/>
</linearGradient>
<linearGradient id="paint16_linear_194_332" x1="20.367" y1="30.766" x2="24.2374" y2="25.6955" gradientUnits="userSpaceOnUse">
<stop offset="1" stop-color="#B39046"/>
</linearGradient>
<linearGradient id="paint17_linear_194_332" x1="46.7015" y1="-1.2043" x2="46.3609" y2="5.17152" gradientUnits="userSpaceOnUse">
<stop offset="1" stop-color="#96C330"/>
</linearGradient>
<linearGradient id="paint18_linear_194_332" x1="45.0078" y1="4.5466" x2="45.3142" y2="10.5746" gradientUnits="userSpaceOnUse">
<stop offset="1" stop-color="#B39149"/>
</linearGradient>
<linearGradient id="paint19_linear_194_332" x1="44.4925" y1="10.5381" x2="44.1521" y2="17.3738" gradientUnits="userSpaceOnUse">
<stop offset="0.9955" stop-color="#96C330"/>
</linearGradient>
<linearGradient id="paint20_linear_194_332" x1="5.25228" y1="27.7345" x2="11.7082" y2="27.7345" gradientUnits="userSpaceOnUse">
<stop offset="0.9955" stop-color="#96C330"/>
</linearGradient>
<linearGradient id="paint21_linear_194_332" x1="53.0256" y1="35.2524" x2="52.6136" y2="31.6189" gradientUnits="userSpaceOnUse">
<stop offset="1" stop-color="#96C330"/>
</linearGradient>
<linearGradient id="paint22_linear_194_332" x1="74.5961" y1="22.7305" x2="65.7113" y2="19.5157" gradientUnits="userSpaceOnUse">
<stop offset="1" stop-color="#96C330"/>
</linearGradient>
<linearGradient id="paint23_linear_194_332" x1="77.6886" y1="17.481" x2="66.1647" y2="20.6821" gradientUnits="userSpaceOnUse">
<stop offset="1" stop-color="#B39047"/>
</linearGradient>
<linearGradient id="paint24_linear_194_332" x1="71.5976" y1="12.1931" x2="67.2708" y2="18.8696" gradientUnits="userSpaceOnUse">
<stop offset="0.148" stop-color="#CBCF34"/>
<stop offset="0.3309" stop-color="#C0CC33"/>
<stop offset="0.6537" stop-color="#A2C631"/>
<stop offset="0.9866" stop-color="#7DBD2F"/>
</linearGradient>
<linearGradient id="paint25_linear_194_332" x1="60.0621" y1="10.9326" x2="60.13" y2="18.953" gradientUnits="userSpaceOnUse">
<stop offset="1" stop-color="#96C330"/>
</linearGradient>
<linearGradient id="paint26_linear_194_332" x1="62.5406" y1="5.909" x2="62.1999" y2="11.6413" gradientUnits="userSpaceOnUse">
<stop offset="0.9955" stop-color="#96C330"/>
</linearGradient>
<linearGradient id="paint27_linear_194_332" x1="51.4043" y1="10.8824" x2="51.0639" y2="17.7181" gradientUnits="userSpaceOnUse">
<stop offset="0.9955" stop-color="#B59D69"/>
</linearGradient>
<linearGradient id="paint28_linear_194_332" x1="47.2229" y1="18.2188" x2="46.8138" y2="24.4635" gradientUnits="userSpaceOnUse">
<stop offset="1" stop-color="#B59D69"/>
</linearGradient>
<linearGradient id="paint29_linear_194_332" x1="55.3652" y1="5.5433" x2="55.5182" y2="11.1469" gradientUnits="userSpaceOnUse">
<stop offset="1" stop-color="#B59D69"/>
</linearGradient>
<linearGradient id="paint30_linear_194_332" x1="58.7296" y1="30.3603" x2="55.697" y2="25.5598" gradientUnits="userSpaceOnUse">
<stop offset="1" stop-color="#B59D69"/>
</linearGradient>
<linearGradient id="paint31_linear_194_332" x1="72.6064" y1="30.8839" x2="71.5583" y2="25.29" gradientUnits="userSpaceOnUse">
<stop offset="0.9955" stop-color="#96C330"/>
</linearGradient>
<linearGradient id="paint32_linear_194_332" x1="40.1542" y1="19.8263" x2="40.2561" y2="55.7778" gradientUnits="userSpaceOnUse">
<stop offset="0.9866" stop-color="#B28C3B"/>
</linearGradient>
<linearGradient id="paint33_linear_194_332" x1="62.5091" y1="46.8423" x2="62.0502" y2="61.3732" gradientUnits="userSpaceOnUse">
<stop stop-color="#52A400"/>
<stop offset="0.9866" stop-color="#55BB2A"/>
</linearGradient>
<linearGradient id="paint34_linear_194_332" x1="13.7627" y1="39.2394" x2="13.6947" y2="47.5363" gradientUnits="userSpaceOnUse">
<stop offset="0.148" stop-color="#CBCF34"/>
<stop offset="0.3309" stop-color="#C0CC33"/>
<stop offset="0.6537" stop-color="#A2C631"/>
<stop offset="0.9866" stop-color="#7DBD2F"/>
</linearGradient>
<linearGradient id="paint35_linear_194_332" x1="40.2069" y1="45.4669" x2="40.3428" y2="55.4242" gradientUnits="userSpaceOnUse">
<stop offset="0.148" stop-color="#CBCF34"/>
<stop offset="0.3309" stop-color="#C0CC33"/>
<stop offset="0.6537" stop-color="#A2C631"/>
<stop offset="0.9866" stop-color="#7DBD2F"/>
</linearGradient>
<linearGradient id="paint36_linear_194_332" x1="40.5882" y1="46.1496" x2="40.1292" y2="60.6805" gradientUnits="userSpaceOnUse">
<stop offset="0.523" stop-color="#54B21A"/>
<stop offset="0.9866" stop-color="#18FA2B"/>
</linearGradient>
<linearGradient id="paint37_linear_194_332" x1="20.3252" y1="45.5097" x2="19.8662" y2="60.0407" gradientUnits="userSpaceOnUse">
<stop stop-color="#74DA2A"/>
<stop offset="0.9866" stop-color="#5AB009"/>
</linearGradient>
</defs>
</svg>
